<svg width="160" height="55" viewBox="0 0 160 55" fill="none" xmlns="http://www.w3.org/2000/svg">
<path d="M37.778 41.7368L32.0395 28.3352C31.4759 27.0236 31.0148 24.7828 31.0148 23.3551C31.0148 21.9273 31.891 20.7591 32.9618 20.7591C34.0326 20.7591 34.9088 19.8813 34.9088 18.8121C34.9088 17.743 33.7406 16.8652 32.3128 16.8652H20.631C19.2032 16.8652 18.035 17.7396 18.035 18.8121C18.035 19.8847 18.9112 20.7591 19.982 20.7591C21.0528 20.7591 21.929 21.9273 21.929 23.3551C21.929 24.7828 21.4679 27.0236 20.9043 28.3369L15.1658 41.7402C14.6022 43.0519 14.1411 44.7119 14.1411 45.4241C14.1411 46.1363 14.7252 47.3079 15.4391 48.0201C16.153 48.7322 17.9052 49.318 19.333 49.318H33.6108C35.0368 49.318 36.7874 48.7374 37.5047 48.0201C38.222 47.3027 38.8027 46.138 38.8027 45.4241C38.8027 44.7102 38.3416 43.0502 37.778 41.7402V41.7368Z" fill="#0FA958"/>
<path d="M25.3595 3.80454C24.4992 3.79971 23.7944 4.47672 23.7897 5.31242C23.785 6.14812 24.4822 6.833 25.3424 6.83783C26.2091 6.8427 26.9075 6.16566 26.9122 5.32996C26.9169 4.49426 26.2261 3.80941 25.3595 3.80454ZM22.0397 4.88163L21.1006 4.15825C21.0181 4.08969 20.9933 3.97812 21.0512 3.87939L21.9517 2.38633C21.9787 2.34179 22.0213 2.30811 22.0716 2.29136C22.1219 2.27461 22.1768 2.27591 22.2263 2.29502L23.3326 2.73457C23.563 2.56253 23.8187 2.42158 24.087 2.31166L24.2655 1.1674C24.2788 1.06224 24.3748 0.982302 24.4832 0.98291L26.2674 0.992933C26.3821 0.993578 26.4709 1.07455 26.4894 1.1799L26.6487 2.32605C26.9221 2.43901 27.1698 2.58279 27.3982 2.75741L28.5158 2.33035C28.6116 2.29374 28.7325 2.33156 28.7829 2.42471L29.6666 3.92779C29.6935 3.97264 29.703 4.02535 29.6934 4.07639C29.6838 4.12743 29.6556 4.17343 29.6141 4.20607L28.667 4.91886L28.6965 5.33998L28.6622 5.76694L29.6013 6.48413C29.6422 6.51738 29.6697 6.56367 29.6787 6.61475C29.6878 6.66583 29.6779 6.71837 29.6507 6.76298L28.7502 8.25604C28.6986 8.3548 28.5774 8.39126 28.482 8.35358L27.3693 7.9078C27.1389 8.07985 26.8895 8.22702 26.6149 8.33072L26.4428 9.4812C26.4231 9.58013 26.3334 9.66011 26.2187 9.65946L24.4345 9.64944C24.3261 9.64883 24.231 9.56782 24.2188 9.4687L24.0532 8.31633C23.7862 8.20959 23.5321 8.05958 23.3037 7.88497L22.1924 8.31825C22.0839 8.35479 21.9758 8.31704 21.919 8.21767L21.0353 6.71459C20.9784 6.62141 21.0046 6.50393 21.0878 6.43631L22.0349 5.72971L22.0055 5.30239L22.0397 4.88163ZM31.1923 10.2631C30.6379 10.26 30.1894 10.6908 30.1864 11.2294C30.1834 11.768 30.627 12.21 31.1814 12.2131C31.4484 12.2146 31.7051 12.113 31.8949 11.9306C32.0848 11.7483 32.1923 11.5001 32.1937 11.2407C32.1967 10.7021 31.7467 10.2662 31.1923 10.2631ZM29.06 10.9507L28.4445 10.4891C28.4001 10.4455 28.3878 10.3712 28.4264 10.3095L29.0053 9.34702C29.0375 9.28529 29.1141 9.26096 29.1777 9.28608L29.8899 9.56865L30.3629 9.29893L30.4882 8.56295C30.5013 8.49493 30.5589 8.44573 30.629 8.44612L31.776 8.45257C31.8525 8.453 31.9096 8.50284 31.9219 8.57101L32.0198 9.30823L32.5025 9.58333L33.2306 9.30884C33.288 9.28441 33.358 9.30956 33.3959 9.37168L33.964 10.3406C34.0019 10.4027 33.9823 10.4769 33.9311 10.5199L33.3232 10.9746L33.3407 11.2471L33.3201 11.5194L33.9229 11.9809C33.949 12.0025 33.9663 12.0324 33.972 12.0653C33.9776 12.0981 33.9712 12.1319 33.9538 12.1606L33.3748 13.123C33.3362 13.1847 33.266 13.2091 33.2088 13.184L32.4903 12.9014L31.9981 13.171L31.892 13.9071C31.8788 13.9751 31.8212 14.0243 31.7447 14.0239L30.5977 14.0175C30.5276 14.0171 30.4705 13.9672 30.4582 13.8991L30.3412 13.1617L29.8712 12.8867L29.156 13.1613C29.0921 13.1857 29.0158 13.1605 28.9842 13.0984L28.4162 12.1295C28.3783 12.0673 28.3914 11.9931 28.4363 11.9501L29.057 11.4954L29.0394 11.223L29.06 10.9507Z" fill="#0FA958"/>
<path d="M49.42 21H56.62V21.44H54.5V34.56H55.22C56.3533 34.56 57.2533 34.2133 57.92 33.52C58.6 32.8267 59.2867 31.76 59.98 30.32H60.4L60.02 35H49.42V34.56H50.6V21.44H49.42V21ZM66.3741 35.2C64.6541 35.2 63.3607 34.76 62.4941 33.88C61.6407 32.9867 61.2141 31.7533 61.2141 30.18C61.2141 28.5933 61.6941 27.38 62.6541 26.54C63.6274 25.7 64.8607 25.28 66.3541 25.28C69.3807 25.28 70.8341 26.8 70.7141 29.84H65.0741V30.62C65.0741 31.9267 65.2407 32.9133 65.5741 33.58C65.9074 34.2467 66.4874 34.58 67.3141 34.58C68.8607 34.58 69.8741 33.7533 70.3541 32.1L70.7141 32.16C70.4607 33.12 70.0007 33.8667 69.3341 34.4C68.6807 34.9333 67.6941 35.2 66.3741 35.2ZM65.0941 29.44H67.1541V28.46C67.1541 27.38 67.0874 26.6467 66.9541 26.26C66.8341 25.86 66.5807 25.66 66.1941 25.66C65.8207 25.66 65.5407 25.8733 65.3541 26.3C65.1807 26.7133 65.0941 27.4333 65.0941 28.46V29.44ZM76.2266 30.3H76.8066V28.76C76.8066 27.4933 76.7332 26.6467 76.5866 26.22C76.4532 25.78 76.1866 25.56 75.7866 25.56C75.5466 25.56 75.3266 25.6267 75.1266 25.76C74.9399 25.88 74.8466 26.0533 74.8466 26.28C74.8466 26.4933 74.8866 26.7133 74.9666 26.94H75.4666C75.5732 27.22 75.6266 27.56 75.6266 27.96C75.6266 28.3467 75.4599 28.6867 75.1266 28.98C74.7932 29.26 74.3732 29.4 73.8666 29.4C72.7199 29.4 72.1466 28.8467 72.1466 27.74C72.1466 26.1 73.5399 25.28 76.3266 25.28C77.9132 25.28 79.0066 25.5533 79.6066 26.1C80.2199 26.6333 80.5266 27.62 80.5266 29.06V33.12C80.5266 33.8133 80.7199 34.16 81.1066 34.16C81.5599 34.16 81.8266 33.4733 81.9066 32.1L82.2066 32.12C82.1532 33.2933 81.9332 34.1 81.5466 34.54C81.1599 34.98 80.5266 35.2 79.6466 35.2C78.0466 35.2 77.1266 34.7067 76.8866 33.72C76.7132 34.2267 76.4532 34.6 76.1066 34.84C75.7599 35.08 75.2532 35.2 74.5866 35.2C72.6132 35.2 71.6266 34.3933 71.6266 32.78C71.6266 31.8333 71.9999 31.1867 72.7466 30.84C73.5066 30.48 74.6666 30.3 76.2266 30.3ZM75.4266 32.76C75.4266 33.4533 75.4599 33.9 75.5266 34.1C75.6066 34.3 75.7466 34.4 75.9466 34.4C76.1599 34.4 76.3532 34.2333 76.5266 33.9C76.7132 33.5533 76.8066 33.08 76.8066 32.48V30.62H76.6666C75.8399 30.62 75.4266 31.2267 75.4266 32.44V32.76ZM89.0831 26.04C88.5898 26.04 88.1565 26.36 87.7831 27C87.4098 27.64 87.2231 28.4 87.2231 29.28V34.64H88.6431V35H82.4031V34.64H83.5031V25.84H82.4031V25.48H87.2231V27.4C87.3965 26.72 87.7298 26.2 88.2231 25.84C88.7165 25.4667 89.2765 25.28 89.9031 25.28C90.5298 25.28 91.0365 25.46 91.4231 25.82C91.8231 26.1667 92.0231 26.6667 92.0231 27.32C92.0231 27.96 91.8765 28.4533 91.5831 28.8C91.2898 29.1467 90.8365 29.32 90.2231 29.32C89.6231 29.32 89.1765 29.12 88.8831 28.72C88.6031 28.32 88.5698 27.7667 88.7831 27.06H89.5031C89.8365 26.38 89.6965 26.04 89.0831 26.04ZM92.3455 25.48H97.1655V27.32C97.3788 26.7067 97.7055 26.2133 98.1455 25.84C98.5855 25.4667 99.2521 25.28 100.145 25.28C102.212 25.28 103.245 26.3933 103.245 28.62V34.64H104.365V35H98.7055V34.64H99.5255V28.14C99.5255 27.34 99.4721 26.8267 99.3655 26.6C99.2588 26.36 99.0655 26.24 98.7855 26.24C98.3588 26.24 97.9788 26.52 97.6455 27.08C97.3255 27.64 97.1655 28.32 97.1655 29.12V34.64H98.0255V35H92.3455V34.64H93.4455V25.84H92.3455V25.48ZM54.4492 43.9697C54.3701 44.6465 54.1196 45.1694 53.6978 45.5386C53.2788 45.9048 52.7207 46.0879 52.0234 46.0879C51.2676 46.0879 50.6611 45.8169 50.2041 45.2749C49.75 44.7329 49.5229 44.0078 49.5229 43.0996V42.4844C49.5229 41.8896 49.6284 41.3667 49.8394 40.9155C50.0532 40.4644 50.355 40.1187 50.7446 39.8784C51.1343 39.6353 51.5854 39.5137 52.0981 39.5137C52.7778 39.5137 53.3228 39.7041 53.7329 40.085C54.1431 40.4629 54.3818 40.9873 54.4492 41.6582H53.6011C53.5278 41.1484 53.3682 40.7793 53.1221 40.5508C52.8789 40.3223 52.5376 40.208 52.0981 40.208C51.5591 40.208 51.1357 40.4072 50.8281 40.8057C50.5234 41.2041 50.3711 41.771 50.3711 42.5063V43.126C50.3711 43.8203 50.5161 44.3726 50.8062 44.7827C51.0962 45.1929 51.502 45.3979 52.0234 45.3979C52.4922 45.3979 52.8511 45.2925 53.1001 45.0815C53.3521 44.8677 53.519 44.4971 53.6011 43.9697H54.4492ZM55.2622 43.5786C55.2622 43.1128 55.353 42.6938 55.5347 42.3218C55.7192 41.9497 55.9741 41.6626 56.2993 41.4604C56.6274 41.2583 57.001 41.1572 57.4199 41.1572C58.0674 41.1572 58.5903 41.3813 58.9888 41.8296C59.3901 42.2778 59.5908 42.874 59.5908 43.6182V43.6753C59.5908 44.1382 59.5015 44.5542 59.3228 44.9233C59.147 45.2896 58.8936 45.5752 58.5625 45.7803C58.2344 45.9854 57.8564 46.0879 57.4287 46.0879C56.7842 46.0879 56.2612 45.8638 55.8599 45.4155C55.4614 44.9673 55.2622 44.374 55.2622 43.6357V43.5786ZM56.0796 43.6753C56.0796 44.2026 56.2012 44.626 56.4443 44.9453C56.6904 45.2646 57.0186 45.4243 57.4287 45.4243C57.8418 45.4243 58.1699 45.2632 58.4131 44.9409C58.6562 44.6157 58.7778 44.1616 58.7778 43.5786C58.7778 43.0571 58.6533 42.6353 58.4043 42.313C58.1582 41.9878 57.8301 41.8252 57.4199 41.8252C57.0186 41.8252 56.6948 41.9849 56.4487 42.3042C56.2026 42.6235 56.0796 43.0806 56.0796 43.6753ZM61.375 41.2451L61.397 41.7725C61.7456 41.3623 62.2158 41.1572 62.8076 41.1572C63.4727 41.1572 63.9253 41.4121 64.1655 41.9219C64.3237 41.6934 64.5288 41.5088 64.7808 41.3682C65.0356 41.2275 65.3359 41.1572 65.6816 41.1572C66.7246 41.1572 67.2549 41.7095 67.2725 42.814V46H66.4595V42.8623C66.4595 42.5225 66.3818 42.269 66.2266 42.1021C66.0713 41.9321 65.8105 41.8472 65.4443 41.8472C65.1426 41.8472 64.8921 41.938 64.6929 42.1196C64.4937 42.2983 64.3779 42.54 64.3457 42.8447V46H63.5283V42.8843C63.5283 42.1929 63.1899 41.8472 62.5132 41.8472C61.98 41.8472 61.6152 42.0742 61.4189 42.5283V46H60.606V41.2451H61.375ZM72.5195 43.6753C72.5195 44.3989 72.354 44.9819 72.0229 45.4243C71.6919 45.8667 71.2437 46.0879 70.6782 46.0879C70.1011 46.0879 69.647 45.9048 69.3159 45.5386V47.8281H68.5029V41.2451H69.2456L69.2852 41.7725C69.6162 41.3623 70.0762 41.1572 70.665 41.1572C71.2363 41.1572 71.6875 41.3726 72.0186 41.8032C72.3525 42.2339 72.5195 42.833 72.5195 43.6006V43.6753ZM71.7065 43.583C71.7065 43.0469 71.5923 42.6235 71.3638 42.313C71.1353 42.0024 70.8218 41.8472 70.4233 41.8472C69.9312 41.8472 69.562 42.0654 69.3159 42.502V44.7739C69.5591 45.2075 69.9312 45.4243 70.4321 45.4243C70.8218 45.4243 71.1309 45.2705 71.3594 44.9629C71.5908 44.6523 71.7065 44.1924 71.7065 43.583ZM73.3413 43.5786C73.3413 43.1128 73.4321 42.6938 73.6138 42.3218C73.7983 41.9497 74.0532 41.6626 74.3784 41.4604C74.7065 41.2583 75.0801 41.1572 75.499 41.1572C76.1465 41.1572 76.6694 41.3813 77.0679 41.8296C77.4692 42.2778 77.6699 42.874 77.6699 43.6182V43.6753C77.6699 44.1382 77.5806 44.5542 77.4019 44.9233C77.2261 45.2896 76.9727 45.5752 76.6416 45.7803C76.3135 45.9854 75.9355 46.0879 75.5078 46.0879C74.8633 46.0879 74.3403 45.8638 73.939 45.4155C73.5405 44.9673 73.3413 44.374 73.3413 43.6357V43.5786ZM74.1587 43.6753C74.1587 44.2026 74.2803 44.626 74.5234 44.9453C74.7695 45.2646 75.0977 45.4243 75.5078 45.4243C75.9209 45.4243 76.249 45.2632 76.4922 44.9409C76.7354 44.6157 76.8569 44.1616 76.8569 43.5786C76.8569 43.0571 76.7324 42.6353 76.4834 42.313C76.2373 41.9878 75.9092 41.8252 75.499 41.8252C75.0977 41.8252 74.7739 41.9849 74.5278 42.3042C74.2817 42.6235 74.1587 43.0806 74.1587 43.6753ZM79.4585 41.2451L79.4849 41.8428C79.8481 41.3857 80.3228 41.1572 80.9087 41.1572C81.9136 41.1572 82.4204 41.7241 82.4292 42.8579V46H81.6162V42.8535C81.6133 42.5107 81.5342 42.2573 81.3789 42.0933C81.2266 41.9292 80.9878 41.8472 80.6626 41.8472C80.3989 41.8472 80.1675 41.9175 79.9683 42.0581C79.769 42.1987 79.6138 42.3833 79.5024 42.6118V46H78.6895V41.2451H79.4585ZM85.6284 46.0879C84.9839 46.0879 84.4595 45.877 84.0552 45.4551C83.6509 45.0303 83.4487 44.4634 83.4487 43.7544V43.605C83.4487 43.1333 83.5381 42.7129 83.7168 42.3438C83.8984 41.9717 84.1504 41.6816 84.4727 41.4736C84.7979 41.2627 85.1494 41.1572 85.5273 41.1572C86.1455 41.1572 86.626 41.3608 86.9688 41.7681C87.3115 42.1753 87.4829 42.7583 87.4829 43.5171V43.8555H84.2617C84.2734 44.3242 84.4097 44.7036 84.6704 44.9937C84.9341 45.2808 85.2681 45.4243 85.6724 45.4243C85.9595 45.4243 86.2026 45.3657 86.4019 45.2485C86.6011 45.1313 86.7754 44.9761 86.9248 44.7827L87.4214 45.1694C87.0229 45.7817 86.4253 46.0879 85.6284 46.0879ZM85.5273 41.8252C85.1992 41.8252 84.9238 41.9453 84.7012 42.1855C84.4785 42.4229 84.3408 42.7568 84.2881 43.1875H86.6699V43.126C86.6465 42.7129 86.5352 42.3936 86.3359 42.168C86.1367 41.9395 85.8672 41.8252 85.5273 41.8252ZM89.1968 41.2451L89.2231 41.8428C89.5864 41.3857 90.061 41.1572 90.647 41.1572C91.6519 41.1572 92.1587 41.7241 92.1675 42.8579V46H91.3545V42.8535C91.3516 42.5107 91.2725 42.2573 91.1172 42.0933C90.9648 41.9292 90.7261 41.8472 90.4009 41.8472C90.1372 41.8472 89.9058 41.9175 89.7065 42.0581C89.5073 42.1987 89.3521 42.3833 89.2407 42.6118V46H88.4277V41.2451H89.1968ZM94.4966 40.0938V41.2451H95.3843V41.8735H94.4966V44.8223C94.4966 45.0127 94.5361 45.1562 94.6152 45.2529C94.6943 45.3467 94.8291 45.3936 95.0195 45.3936C95.1133 45.3936 95.2422 45.376 95.4062 45.3408V46C95.1924 46.0586 94.9844 46.0879 94.7822 46.0879C94.4189 46.0879 94.145 45.978 93.9604 45.7583C93.7759 45.5386 93.6836 45.2266 93.6836 44.8223V41.8735H92.8179V41.2451H93.6836V40.0938H94.4966ZM99.5459 45.3101H102.578V46H98.6978V39.6016H99.5459V45.3101ZM104.296 46H103.483V41.2451H104.296V46ZM103.417 39.9839C103.417 39.8521 103.457 39.7407 103.536 39.6499C103.618 39.5591 103.738 39.5137 103.896 39.5137C104.055 39.5137 104.175 39.5591 104.257 39.6499C104.339 39.7407 104.38 39.8521 104.38 39.9839C104.38 40.1157 104.339 40.2256 104.257 40.3135C104.175 40.4014 104.055 40.4453 103.896 40.4453C103.738 40.4453 103.618 40.4014 103.536 40.3135C103.457 40.2256 103.417 40.1157 103.417 39.9839ZM109.627 43.6753C109.627 44.4019 109.46 44.9863 109.126 45.4287C108.792 45.8682 108.344 46.0879 107.781 46.0879C107.181 46.0879 106.716 45.8755 106.388 45.4507L106.349 46H105.602V39.25H106.415V41.7681C106.743 41.3608 107.195 41.1572 107.772 41.1572C108.35 41.1572 108.802 41.3755 109.13 41.812C109.461 42.2485 109.627 42.8462 109.627 43.605V43.6753ZM108.814 43.583C108.814 43.0293 108.707 42.6016 108.493 42.2998C108.279 41.998 107.972 41.8472 107.57 41.8472C107.034 41.8472 106.649 42.0962 106.415 42.5942V44.6509C106.664 45.1489 107.052 45.3979 107.579 45.3979C107.969 45.3979 108.272 45.2471 108.489 44.9453C108.706 44.6436 108.814 44.1895 108.814 43.583ZM112.954 41.9746C112.831 41.9541 112.697 41.9438 112.554 41.9438C112.021 41.9438 111.659 42.1709 111.468 42.625V46H110.655V41.2451H111.446L111.459 41.7944C111.726 41.3696 112.104 41.1572 112.593 41.1572C112.751 41.1572 112.872 41.1777 112.954 41.2188V41.9746ZM116.465 46C116.418 45.9062 116.38 45.7393 116.351 45.499C115.973 45.8916 115.521 46.0879 114.997 46.0879C114.528 46.0879 114.143 45.9561 113.841 45.6924C113.542 45.4258 113.393 45.0889 113.393 44.6816C113.393 44.1865 113.581 43.8027 113.956 43.5303C114.333 43.2549 114.864 43.1172 115.546 43.1172H116.337V42.7437C116.337 42.4595 116.252 42.2339 116.083 42.0669C115.913 41.897 115.662 41.812 115.331 41.812C115.041 41.812 114.798 41.8853 114.602 42.0317C114.405 42.1782 114.307 42.3555 114.307 42.5635H113.49C113.49 42.3262 113.573 42.0977 113.74 41.8779C113.91 41.6553 114.139 41.4795 114.426 41.3506C114.716 41.2217 115.034 41.1572 115.379 41.1572C115.927 41.1572 116.356 41.2949 116.667 41.5703C116.978 41.8428 117.139 42.2192 117.15 42.6997V44.8882C117.15 45.3247 117.206 45.6719 117.317 45.9297V46H116.465ZM115.116 45.3804C115.371 45.3804 115.612 45.3145 115.841 45.1826C116.069 45.0508 116.235 44.8794 116.337 44.6685V43.6929H115.7C114.704 43.6929 114.206 43.9844 114.206 44.5674C114.206 44.8223 114.291 45.0215 114.461 45.165C114.631 45.3086 114.849 45.3804 115.116 45.3804ZM120.723 41.9746C120.6 41.9541 120.467 41.9438 120.323 41.9438C119.79 41.9438 119.428 42.1709 119.238 42.625V46H118.425V41.2451H119.216L119.229 41.7944C119.496 41.3696 119.874 41.1572 120.363 41.1572C120.521 41.1572 120.641 41.1777 120.723 41.2188V41.9746ZM123.109 44.8091L124.217 41.2451H125.087L123.175 46.7339C122.879 47.5249 122.409 47.9204 121.765 47.9204L121.611 47.9072L121.308 47.8501V47.1909L121.527 47.2085C121.803 47.2085 122.017 47.1528 122.169 47.0415C122.324 46.9302 122.452 46.7266 122.551 46.4307L122.731 45.9473L121.035 41.2451H121.923L123.109 44.8091Z" fill="black"/>
<path d="M108.443 21H115.643V21.44H113.523V34.56H114.243C115.377 34.56 116.277 34.2133 116.943 33.52C117.623 32.8267 118.31 31.76 119.003 30.32H119.423L119.043 35H108.443V34.56H109.623V21.44H108.443V21ZM124.938 30.3H125.518V28.76C125.518 27.4933 125.444 26.6467 125.298 26.22C125.164 25.78 124.898 25.56 124.498 25.56C124.258 25.56 124.038 25.6267 123.838 25.76C123.651 25.88 123.558 26.0533 123.558 26.28C123.558 26.4933 123.598 26.7133 123.678 26.94H124.178C124.284 27.22 124.338 27.56 124.338 27.96C124.338 28.3467 124.171 28.6867 123.838 28.98C123.504 29.26 123.084 29.4 122.577 29.4C121.431 29.4 120.858 28.8467 120.858 27.74C120.858 26.1 122.251 25.28 125.038 25.28C126.624 25.28 127.718 25.5533 128.318 26.1C128.931 26.6333 129.238 27.62 129.238 29.06V33.12C129.238 33.8133 129.431 34.16 129.818 34.16C130.271 34.16 130.538 33.4733 130.618 32.1L130.918 32.12C130.864 33.2933 130.644 34.1 130.258 34.54C129.871 34.98 129.238 35.2 128.358 35.2C126.758 35.2 125.838 34.7067 125.598 33.72C125.424 34.2267 125.164 34.6 124.818 34.84C124.471 35.08 123.964 35.2 123.298 35.2C121.324 35.2 120.338 34.3933 120.338 32.78C120.338 31.8333 120.711 31.1867 121.458 30.84C122.218 30.48 123.378 30.3 124.938 30.3ZM124.138 32.76C124.138 33.4533 124.171 33.9 124.238 34.1C124.318 34.3 124.458 34.4 124.658 34.4C124.871 34.4 125.064 34.2333 125.238 33.9C125.424 33.5533 125.518 33.08 125.518 32.48V30.62H125.378C124.551 30.62 124.138 31.2267 124.138 32.44V32.76ZM138.414 29.62C138.414 28.2467 138.347 27.3267 138.214 26.86C138.081 26.38 137.821 26.14 137.434 26.14C137.047 26.14 136.701 26.38 136.394 26.86C136.087 27.34 135.934 28 135.934 28.84V32.56C135.934 33.1333 136.047 33.62 136.274 34.02C136.514 34.42 136.847 34.62 137.274 34.62C137.714 34.62 138.014 34.3267 138.174 33.74C138.334 33.1533 138.414 32.1267 138.414 30.66V29.62ZM135.934 20V27C136.441 25.8533 137.307 25.28 138.534 25.28C141.027 25.28 142.274 26.94 142.274 30.26C142.274 31.9533 141.927 33.2 141.234 34C140.554 34.8 139.527 35.2 138.154 35.2C137.461 35.2 136.927 35.0933 136.554 34.88C136.194 34.6667 135.947 34.3133 135.814 33.82L135.674 35H131.114V34.64H132.214V20.36H131.114V20H135.934ZM143.332 35.2V31.62H143.572C143.919 32.78 144.385 33.5933 144.972 34.06C145.559 34.5267 146.292 34.76 147.172 34.76C148.532 34.76 149.212 34.3267 149.212 33.46C149.212 33.0867 149.045 32.8067 148.712 32.62C148.192 32.3267 147.525 32.1 146.712 31.94C145.805 31.7 145.045 31.38 144.432 30.98C143.699 30.5 143.332 29.74 143.332 28.7C143.332 27.66 143.652 26.8333 144.292 26.22C144.932 25.5933 145.785 25.28 146.852 25.28C147.505 25.28 148.179 25.4333 148.872 25.74C149.125 25.8467 149.319 25.9 149.452 25.9C149.585 25.9 149.699 25.8533 149.792 25.76C149.885 25.6667 149.999 25.4933 150.132 25.24H150.352V28.3H150.112C149.432 26.5667 148.379 25.7 146.952 25.7C146.325 25.7 145.859 25.8133 145.552 26.04C145.245 26.2533 145.092 26.5267 145.092 26.86C145.092 27.06 145.139 27.22 145.232 27.34C145.325 27.4467 145.399 27.5267 145.452 27.58C145.505 27.6333 145.592 27.6933 145.712 27.76C145.832 27.8133 145.932 27.86 146.012 27.9C146.092 27.9267 146.212 27.9667 146.372 28.02C146.545 28.0733 146.672 28.1067 146.752 28.12C147.659 28.3467 148.312 28.5467 148.712 28.72C149.112 28.88 149.492 29.08 149.852 29.32C150.585 29.8267 150.952 30.6467 150.952 31.78C150.952 32.9 150.619 33.7533 149.952 34.34C149.285 34.9133 148.372 35.2 147.212 35.2C146.385 35.2 145.585 35.0067 144.812 34.62C144.652 34.5133 144.525 34.46 144.432 34.46C144.139 34.46 143.852 34.7067 143.572 35.2H143.332Z" fill="#0D984F"/>
</svg>
